<svg id='Copy_to_Clipboard_24' width='24' height='24' viewBox='0 0 24 24' xmlns='http://www.w3.org/2000/svg' xmlns:xlink='http://www.w3.org/1999/xlink'><rect width='24' height='24' stroke='none' fill='#000000' opacity='0'/>
<g transform="matrix(0.44 0 0 0.44 12 12)" >
<path style="stroke: none; stroke-width: 1; stroke-dasharray: none; stroke-linecap: butt; stroke-dashoffset: 0; stroke-linejoin: miter; stroke-miterlimit: 4; fill: rgb(0,0,0); fill-rule: nonzero; opacity: 1;" transform=" translate(-26.5, -25.5)" d="M 20.5 3 C 18.203405 3 16.305701 4.7666235 16.050781 7 L 12.5 7 C 10.015 7 8 9.015 8 11.5 L 8 38.5 C 8 40.985 10.015 43 12.5 43 L 20 43 L 20 26 C 20 24.343 21.343 23 23 23 L 40 23 L 40 11.5 C 40 9.015 37.985 7 35.5 7 L 31.949219 7 C 31.694299 4.7666235 29.796595 3 27.5 3 L 20.5 3 z M 20.5 6 L 27.5 6 C 28.346499 6 29 6.6535009 29 7.5 C 29 8.3464991 28.346499 9 27.5 9 L 20.5 9 C 19.653501 9 19 8.3464991 19 7.5 C 19 6.6535009 19.653501 6 20.5 6 z M 23.5 25 C 22.67157287525381 25 22 25.67157287525381 22 26.5 C 22 27.32842712474619 22.67157287525381 28 23.5 28 C 24.32842712474619 28 25 27.32842712474619 25 26.5 C 25 25.67157287525381 24.32842712474619 25 23.5 25 z M 28.5 25 C 27.67157287525381 25 27 25.67157287525381 27 26.5 C 27 27.32842712474619 27.67157287525381 28 28.5 28 C 29.32842712474619 28 30 27.32842712474619 30 26.5 C 30 25.67157287525381 29.32842712474619 25 28.5 25 z M 33.5 25 C 32.67157287525381 25 32 25.67157287525381 32 26.5 C 32 27.32842712474619 32.67157287525381 28 33.5 28 C 34.32842712474619 28 35 27.32842712474619 35 26.5 C 35 25.67157287525381 34.32842712474619 25 33.5 25 z M 38.5 25 C 37.67157287525381 25 37 25.67157287525381 37 26.5 C 37 27.32842712474619 37.67157287525381 28 38.5 28 C 39.32842712474619 28 40 27.32842712474619 40 26.5 C 40 25.67157287525381 39.32842712474619 25 38.5 25 z M 43.5 25 C 42.67157287525381 25 42 25.67157287525381 42 26.5 C 42 27.32842712474619 42.67157287525381 28 43.5 28 C 44.32842712474619 28 45 27.32842712474619 45 26.5 C 45 25.67157287525381 44.32842712474619 25 43.5 25 z M 23.5 30 C 22.67157287525381 30 22 30.67157287525381 22 31.5 C 22 32.32842712474619 22.67157287525381 33 23.5 33 C 24.32842712474619 33 25 32.32842712474619 25 31.5 C 25 30.67157287525381 24.32842712474619 30 23.5 30 z M 43.5 30 C 42.67157287525381 30 42 30.67157287525381 42 31.5 C 42 32.32842712474619 42.67157287525381 33 43.5 33 C 44.32842712474619 33 45 32.32842712474619 45 31.5 C 45 30.67157287525381 44.32842712474619 30 43.5 30 z M 23.5 35 C 22.67157287525381 35 22 35.67157287525381 22 36.5 C 22 37.32842712474619 22.67157287525381 38 23.5 38 C 24.32842712474619 38 25 37.32842712474619 25 36.5 C 25 35.67157287525381 24.32842712474619 35 23.5 35 z M 43.5 35 C 42.67157287525381 35 42 35.67157287525381 42 36.5 C 42 37.32842712474619 42.67157287525381 38 43.5 38 C 44.32842712474619 38 45 37.32842712474619 45 36.5 C 45 35.67157287525381 44.32842712474619 35 43.5 35 z M 23.5 40 C 22.67157287525381 40 22 40.67157287525381 22 41.5 C 22 42.32842712474619 22.67157287525381 43 23.5 43 C 24.32842712474619 43 25 42.32842712474619 25 41.5 C 25 40.67157287525381 24.32842712474619 40 23.5 40 z M 43.5 40 C 42.67157287525381 40 42 40.67157287525381 42 41.5 C 42 42.32842712474619 42.67157287525381 43 43.5 43 C 44.32842712474619 43 45 42.32842712474619 45 41.5 C 45 40.67157287525381 44.32842712474619 40 43.5 40 z M 23.5 45 C 22.67157287525381 45 22 45.67157287525381 22 46.5 C 22 47.32842712474619 22.67157287525381 48 23.5 48 C 24.32842712474619 48 25 47.32842712474619 25 46.5 C 25 45.67157287525381 24.32842712474619 45 23.5 45 z M 28.5 45 C 27.67157287525381 45 27 45.67157287525381 27 46.5 C 27 47.32842712474619 27.67157287525381 48 28.5 48 C 29.32842712474619 48 30 47.32842712474619 30 46.5 C 30 45.67157287525381 29.32842712474619 45 28.5 45 z M 33.5 45 C 32.67157287525381 45 32 45.67157287525381 32 46.5 C 32 47.32842712474619 32.67157287525381 48 33.5 48 C 34.32842712474619 48 35 47.32842712474619 35 46.5 C 35 45.67157287525381 34.32842712474619 45 33.5 45 z M 38.5 45 C 37.67157287525381 45 37 45.67157287525381 37 46.5 C 37 47.32842712474619 37.67157287525381 48 38.5 48 C 39.32842712474619 48 40 47.32842712474619 40 46.5 C 40 45.67157287525381 39.32842712474619 45 38.5 45 z M 43.5 45 C 42.67157287525381 45 42 45.67157287525381 42 46.5 C 42 47.32842712474619 42.67157287525381 48 43.5 48 C 44.32842712474619 48 45 47.32842712474619 45 46.5 C 45 45.67157287525381 44.32842712474619 45 43.5 45 z" stroke-linecap="round" />
</g>
</svg>